# xmcd CD database file
#
# Track frame offsets:
#	150
#	15789
#	31569
#	49429
#	69002
#	85065
#	98543
#	115991
#	131055
#	143284
#	161338
#	175276
#	190834
#	205147
#	237140
#
# Disc length: 3562 seconds
#
# Revision: 0
# Processed by: cddbd v1.5.2PL0 Copyright (c) Steve Scherf et al.
# Submitted via: CDex 1.70beta2
#
DISCID=ac0de80f
DTITLE=Acid Drinkers - Vile Vicious Vision
DYEAR=2008
DGENRE=Thrash Metal
TTITLE0=Acid Drinkers - Zero
TTITLE1=Acid Drinkers - (Voluntary) Kamikaze Club
TTITLE2=Acid Drinkers - Vile Vicious Vision
TTITLE3=Acid Drinkers - Pizza Driver
TTITLE4=Acid Drinkers - Under The Gun
TTITLE5=Acid Drinkers - Marian, Is A Metal Guru
TTITLE6=Acid Drinkers - Murzyn Mariusz
TTITLE7=Acid Drinkers - Balbinattor Edzy
TTITLE8=Acid Drinkers - Then She Kissed Me
TTITLE9=Acid Drinkers - Hats Off (2 This Lady)
TTITLE10=Acid Drinkers - Polish Blood
TTITLE11=Acid Drinkers - You Freeze Me
TTITLE12=Acid Drinkers - Midnight Visitor
TTITLE13=Acid Drinkers - Pizza Driver
TTITLE14=Data Track
EXTD=YEAR: 2008
EXTT0=
EXTT1=
EXTT2=
EXTT3=
EXTT4=
EXTT5=
EXTT6=
EXTT7=
EXTT8=
EXTT9=
EXTT10=
EXTT11=
EXTT12=
EXTT13=
EXTT14=
PLAYORDER=
